<mxfile host="65bd71144e">
    <diagram id="0MLLfg1iaX1Cuq8qHvcu" name="Page-1">
        <mxGraphModel dx="1353" dy="787" grid="1" gridSize="10" guides="1" tooltips="1" connect="1" arrows="1" fold="1" page="1" pageScale="1" pageWidth="850" pageHeight="1100" math="0" shadow="0">
            <root>
                <mxCell id="0"/>
                <mxCell id="1" parent="0"/>
                <mxCell id="27" value="" style="rounded=0;whiteSpace=wrap;html=1;fillColor=#FFFFFF;strokeColor=none;strokeWidth=0;" vertex="1" parent="1">
                    <mxGeometry x="130" y="405" width="410" height="445" as="geometry"/>
                </mxCell>
                <mxCell id="23" style="edgeStyle=none;html=1;entryX=0.5;entryY=0;entryDx=0;entryDy=0;strokeColor=#000000;" parent="1" source="12" target="13" edge="1">
                    <mxGeometry relative="1" as="geometry"/>
                </mxCell>
                <mxCell id="12" value="App_Idle_or_Playing" style="rounded=1;whiteSpace=wrap;html=1;strokeColor=#000000;fillColor=none;fontColor=#000000;" parent="1" vertex="1">
                    <mxGeometry x="188" y="443" width="159" height="60" as="geometry"/>
                </mxCell>
                <mxCell id="18" style="edgeStyle=none;html=1;strokeColor=#000000;" parent="1" source="13" target="17" edge="1">
                    <mxGeometry relative="1" as="geometry"/>
                </mxCell>
                <mxCell id="26" style="edgeStyle=none;html=1;entryX=0.5;entryY=0;entryDx=0;entryDy=0;strokeColor=#000000;" parent="1" source="13" target="25" edge="1">
                    <mxGeometry relative="1" as="geometry">
                        <Array as="points">
                            <mxPoint x="427" y="570"/>
                        </Array>
                    </mxGeometry>
                </mxCell>
                <mxCell id="13" value="Project_Selected" style="rounded=1;whiteSpace=wrap;html=1;strokeColor=#000000;fillColor=none;fontColor=#000000;" parent="1" vertex="1">
                    <mxGeometry x="207.5" y="540" width="120" height="60" as="geometry"/>
                </mxCell>
                <mxCell id="22" style="edgeStyle=none;html=1;strokeColor=#000000;" parent="1" source="17" target="21" edge="1">
                    <mxGeometry relative="1" as="geometry">
                        <mxPoint x="250" y="780" as="targetPoint"/>
                        <Array as="points"/>
                    </mxGeometry>
                </mxCell>
                <mxCell id="17" value="Project_Deleted" style="rounded=1;whiteSpace=wrap;html=1;strokeColor=#000000;fillColor=none;fontColor=#000000;" parent="1" vertex="1">
                    <mxGeometry x="207.5" y="650" width="120" height="60" as="geometry"/>
                </mxCell>
                <mxCell id="21" value="&lt;font&gt;App_Idle_or_Playing&lt;/font&gt;" style="rounded=1;whiteSpace=wrap;html=1;fillColor=#009999;strokeColor=#000000;fontColor=#000000;fontStyle=1" parent="1" vertex="1">
                    <mxGeometry x="188" y="760" width="159" height="60" as="geometry"/>
                </mxCell>
                <mxCell id="25" value="App_Idle_or_Playing" style="rounded=1;whiteSpace=wrap;html=1;fillColor=#FF9933;strokeColor=#000000;fontColor=#000000;fontStyle=1" parent="1" vertex="1">
                    <mxGeometry x="347" y="650" width="159" height="60" as="geometry"/>
                </mxCell>
            </root>
        </mxGraphModel>
    </diagram>
</mxfile>